<mxfile host="app.diagrams.net" modified="2024-04-15T13:15:18.472Z" agent="Mozilla/5.0 (Windows NT 10.0; Win64; x64) AppleWebKit/537.36 (KHTML, like Gecko) Chrome/123.0.0.0 Safari/537.36" etag="wIreO9Fof2ZFOWOJyjG0" version="24.2.5" type="github">
  <diagram name="Página-1" id="1PPnwbSB3SNteQ__wIwT">
    <mxGraphModel dx="1120" dy="468" grid="1" gridSize="10" guides="1" tooltips="1" connect="1" arrows="1" fold="1" page="1" pageScale="1" pageWidth="827" pageHeight="1169" math="0" shadow="0">
      <root>
        <mxCell id="0" />
        <mxCell id="1" parent="0" />
        <mxCell id="5KZx7h7oy_Z8J5BHpIhN-43" value="Operação" style="swimlane;fontStyle=1;align=center;verticalAlign=top;childLayout=stackLayout;horizontal=1;startSize=26;horizontalStack=0;resizeParent=1;resizeParentMax=0;resizeLast=0;collapsible=1;marginBottom=0;whiteSpace=wrap;html=1;" vertex="1" parent="1">
          <mxGeometry x="620" y="250" width="180" height="86" as="geometry" />
        </mxCell>
        <mxCell id="5KZx7h7oy_Z8J5BHpIhN-44" value="+ field: type" style="text;strokeColor=none;fillColor=none;align=left;verticalAlign=top;spacingLeft=4;spacingRight=4;overflow=hidden;rotatable=0;points=[[0,0.5],[1,0.5]];portConstraint=eastwest;whiteSpace=wrap;html=1;" vertex="1" parent="5KZx7h7oy_Z8J5BHpIhN-43">
          <mxGeometry y="26" width="180" height="26" as="geometry" />
        </mxCell>
        <mxCell id="5KZx7h7oy_Z8J5BHpIhN-45" value="" style="line;strokeWidth=1;fillColor=none;align=left;verticalAlign=middle;spacingTop=-1;spacingLeft=3;spacingRight=3;rotatable=0;labelPosition=right;points=[];portConstraint=eastwest;strokeColor=inherit;" vertex="1" parent="5KZx7h7oy_Z8J5BHpIhN-43">
          <mxGeometry y="52" width="180" height="8" as="geometry" />
        </mxCell>
        <mxCell id="5KZx7h7oy_Z8J5BHpIhN-46" value="+ method(type): type" style="text;strokeColor=none;fillColor=none;align=left;verticalAlign=top;spacingLeft=4;spacingRight=4;overflow=hidden;rotatable=0;points=[[0,0.5],[1,0.5]];portConstraint=eastwest;whiteSpace=wrap;html=1;" vertex="1" parent="5KZx7h7oy_Z8J5BHpIhN-43">
          <mxGeometry y="60" width="180" height="26" as="geometry" />
        </mxCell>
        <mxCell id="5KZx7h7oy_Z8J5BHpIhN-51" value="Cliente" style="swimlane;fontStyle=1;align=center;verticalAlign=top;childLayout=stackLayout;horizontal=1;startSize=26;horizontalStack=0;resizeParent=1;resizeParentMax=0;resizeLast=0;collapsible=1;marginBottom=0;whiteSpace=wrap;html=1;" vertex="1" parent="1">
          <mxGeometry x="80" y="60" width="160" height="242" as="geometry" />
        </mxCell>
        <mxCell id="5KZx7h7oy_Z8J5BHpIhN-52" value="+ idCliente: int" style="text;strokeColor=none;fillColor=none;align=left;verticalAlign=top;spacingLeft=4;spacingRight=4;overflow=hidden;rotatable=0;points=[[0,0.5],[1,0.5]];portConstraint=eastwest;whiteSpace=wrap;html=1;" vertex="1" parent="5KZx7h7oy_Z8J5BHpIhN-51">
          <mxGeometry y="26" width="160" height="26" as="geometry" />
        </mxCell>
        <mxCell id="5KZx7h7oy_Z8J5BHpIhN-4" value="+ nome: string" style="text;strokeColor=none;fillColor=none;align=left;verticalAlign=top;spacingLeft=4;spacingRight=4;overflow=hidden;rotatable=0;points=[[0,0.5],[1,0.5]];portConstraint=eastwest;whiteSpace=wrap;html=1;" vertex="1" parent="5KZx7h7oy_Z8J5BHpIhN-51">
          <mxGeometry y="52" width="160" height="26" as="geometry" />
        </mxCell>
        <mxCell id="5KZx7h7oy_Z8J5BHpIhN-5" value="+ endereco: string" style="text;strokeColor=none;fillColor=none;align=left;verticalAlign=top;spacingLeft=4;spacingRight=4;overflow=hidden;rotatable=0;points=[[0,0.5],[1,0.5]];portConstraint=eastwest;whiteSpace=wrap;html=1;" vertex="1" parent="5KZx7h7oy_Z8J5BHpIhN-51">
          <mxGeometry y="78" width="160" height="26" as="geometry" />
        </mxCell>
        <mxCell id="5KZx7h7oy_Z8J5BHpIhN-6" value="+ Bairro: type" style="text;strokeColor=none;fillColor=none;align=left;verticalAlign=top;spacingLeft=4;spacingRight=4;overflow=hidden;rotatable=0;points=[[0,0.5],[1,0.5]];portConstraint=eastwest;whiteSpace=wrap;html=1;" vertex="1" parent="5KZx7h7oy_Z8J5BHpIhN-51">
          <mxGeometry y="104" width="160" height="26" as="geometry" />
        </mxCell>
        <mxCell id="5KZx7h7oy_Z8J5BHpIhN-107" value="+ telefone: type" style="text;strokeColor=none;fillColor=none;align=left;verticalAlign=top;spacingLeft=4;spacingRight=4;overflow=hidden;rotatable=0;points=[[0,0.5],[1,0.5]];portConstraint=eastwest;whiteSpace=wrap;html=1;" vertex="1" parent="5KZx7h7oy_Z8J5BHpIhN-51">
          <mxGeometry y="130" width="160" height="26" as="geometry" />
        </mxCell>
        <mxCell id="5KZx7h7oy_Z8J5BHpIhN-108" value="+ celular: type" style="text;strokeColor=none;fillColor=none;align=left;verticalAlign=top;spacingLeft=4;spacingRight=4;overflow=hidden;rotatable=0;points=[[0,0.5],[1,0.5]];portConstraint=eastwest;whiteSpace=wrap;html=1;" vertex="1" parent="5KZx7h7oy_Z8J5BHpIhN-51">
          <mxGeometry y="156" width="160" height="26" as="geometry" />
        </mxCell>
        <mxCell id="5KZx7h7oy_Z8J5BHpIhN-109" value="+ email: type" style="text;strokeColor=none;fillColor=none;align=left;verticalAlign=top;spacingLeft=4;spacingRight=4;overflow=hidden;rotatable=0;points=[[0,0.5],[1,0.5]];portConstraint=eastwest;whiteSpace=wrap;html=1;" vertex="1" parent="5KZx7h7oy_Z8J5BHpIhN-51">
          <mxGeometry y="182" width="160" height="26" as="geometry" />
        </mxCell>
        <mxCell id="5KZx7h7oy_Z8J5BHpIhN-53" value="" style="line;strokeWidth=1;fillColor=none;align=left;verticalAlign=middle;spacingTop=-1;spacingLeft=3;spacingRight=3;rotatable=0;labelPosition=right;points=[];portConstraint=eastwest;strokeColor=inherit;" vertex="1" parent="5KZx7h7oy_Z8J5BHpIhN-51">
          <mxGeometry y="208" width="160" height="8" as="geometry" />
        </mxCell>
        <mxCell id="5KZx7h7oy_Z8J5BHpIhN-54" value="+ method(type): type" style="text;strokeColor=none;fillColor=none;align=left;verticalAlign=top;spacingLeft=4;spacingRight=4;overflow=hidden;rotatable=0;points=[[0,0.5],[1,0.5]];portConstraint=eastwest;whiteSpace=wrap;html=1;" vertex="1" parent="5KZx7h7oy_Z8J5BHpIhN-51">
          <mxGeometry y="216" width="160" height="26" as="geometry" />
        </mxCell>
        <mxCell id="5KZx7h7oy_Z8J5BHpIhN-55" value="Pessoa Física" style="swimlane;fontStyle=1;align=center;verticalAlign=top;childLayout=stackLayout;horizontal=1;startSize=26;horizontalStack=0;resizeParent=1;resizeParentMax=0;resizeLast=0;collapsible=1;marginBottom=0;whiteSpace=wrap;html=1;" vertex="1" parent="1">
          <mxGeometry x="10" y="360" width="130" height="112" as="geometry" />
        </mxCell>
        <mxCell id="5KZx7h7oy_Z8J5BHpIhN-56" value="+ field: type" style="text;strokeColor=none;fillColor=none;align=left;verticalAlign=top;spacingLeft=4;spacingRight=4;overflow=hidden;rotatable=0;points=[[0,0.5],[1,0.5]];portConstraint=eastwest;whiteSpace=wrap;html=1;" vertex="1" parent="5KZx7h7oy_Z8J5BHpIhN-55">
          <mxGeometry y="26" width="130" height="26" as="geometry" />
        </mxCell>
        <mxCell id="5KZx7h7oy_Z8J5BHpIhN-8" value="+ field: type" style="text;strokeColor=none;fillColor=none;align=left;verticalAlign=top;spacingLeft=4;spacingRight=4;overflow=hidden;rotatable=0;points=[[0,0.5],[1,0.5]];portConstraint=eastwest;whiteSpace=wrap;html=1;" vertex="1" parent="5KZx7h7oy_Z8J5BHpIhN-55">
          <mxGeometry y="52" width="130" height="26" as="geometry" />
        </mxCell>
        <mxCell id="5KZx7h7oy_Z8J5BHpIhN-57" value="" style="line;strokeWidth=1;fillColor=none;align=left;verticalAlign=middle;spacingTop=-1;spacingLeft=3;spacingRight=3;rotatable=0;labelPosition=right;points=[];portConstraint=eastwest;strokeColor=inherit;" vertex="1" parent="5KZx7h7oy_Z8J5BHpIhN-55">
          <mxGeometry y="78" width="130" height="8" as="geometry" />
        </mxCell>
        <mxCell id="5KZx7h7oy_Z8J5BHpIhN-58" value="+ method(type): type" style="text;strokeColor=none;fillColor=none;align=left;verticalAlign=top;spacingLeft=4;spacingRight=4;overflow=hidden;rotatable=0;points=[[0,0.5],[1,0.5]];portConstraint=eastwest;whiteSpace=wrap;html=1;" vertex="1" parent="5KZx7h7oy_Z8J5BHpIhN-55">
          <mxGeometry y="86" width="130" height="26" as="geometry" />
        </mxCell>
        <mxCell id="5KZx7h7oy_Z8J5BHpIhN-59" value="Pessoa Jurídica" style="swimlane;fontStyle=1;align=center;verticalAlign=top;childLayout=stackLayout;horizontal=1;startSize=26;horizontalStack=0;resizeParent=1;resizeParentMax=0;resizeLast=0;collapsible=1;marginBottom=0;whiteSpace=wrap;html=1;" vertex="1" parent="1">
          <mxGeometry x="160" y="360" width="136" height="112" as="geometry" />
        </mxCell>
        <mxCell id="5KZx7h7oy_Z8J5BHpIhN-60" value="+ field: type" style="text;strokeColor=none;fillColor=none;align=left;verticalAlign=top;spacingLeft=4;spacingRight=4;overflow=hidden;rotatable=0;points=[[0,0.5],[1,0.5]];portConstraint=eastwest;whiteSpace=wrap;html=1;" vertex="1" parent="5KZx7h7oy_Z8J5BHpIhN-59">
          <mxGeometry y="26" width="136" height="26" as="geometry" />
        </mxCell>
        <mxCell id="5KZx7h7oy_Z8J5BHpIhN-9" value="+ field: type" style="text;strokeColor=none;fillColor=none;align=left;verticalAlign=top;spacingLeft=4;spacingRight=4;overflow=hidden;rotatable=0;points=[[0,0.5],[1,0.5]];portConstraint=eastwest;whiteSpace=wrap;html=1;" vertex="1" parent="5KZx7h7oy_Z8J5BHpIhN-59">
          <mxGeometry y="52" width="136" height="26" as="geometry" />
        </mxCell>
        <mxCell id="5KZx7h7oy_Z8J5BHpIhN-61" value="" style="line;strokeWidth=1;fillColor=none;align=left;verticalAlign=middle;spacingTop=-1;spacingLeft=3;spacingRight=3;rotatable=0;labelPosition=right;points=[];portConstraint=eastwest;strokeColor=inherit;" vertex="1" parent="5KZx7h7oy_Z8J5BHpIhN-59">
          <mxGeometry y="78" width="136" height="8" as="geometry" />
        </mxCell>
        <mxCell id="5KZx7h7oy_Z8J5BHpIhN-62" value="+ method(type): type" style="text;strokeColor=none;fillColor=none;align=left;verticalAlign=top;spacingLeft=4;spacingRight=4;overflow=hidden;rotatable=0;points=[[0,0.5],[1,0.5]];portConstraint=eastwest;whiteSpace=wrap;html=1;" vertex="1" parent="5KZx7h7oy_Z8J5BHpIhN-59">
          <mxGeometry y="86" width="136" height="26" as="geometry" />
        </mxCell>
        <mxCell id="5KZx7h7oy_Z8J5BHpIhN-63" value="Imovel" style="swimlane;fontStyle=1;align=center;verticalAlign=top;childLayout=stackLayout;horizontal=1;startSize=26;horizontalStack=0;resizeParent=1;resizeParentMax=0;resizeLast=0;collapsible=1;marginBottom=0;whiteSpace=wrap;html=1;" vertex="1" parent="1">
          <mxGeometry x="340" y="200" width="160" height="346" as="geometry" />
        </mxCell>
        <mxCell id="5KZx7h7oy_Z8J5BHpIhN-64" value="+ idimovel: int" style="text;strokeColor=none;fillColor=none;align=left;verticalAlign=top;spacingLeft=4;spacingRight=4;overflow=hidden;rotatable=0;points=[[0,0.5],[1,0.5]];portConstraint=eastwest;whiteSpace=wrap;html=1;" vertex="1" parent="5KZx7h7oy_Z8J5BHpIhN-63">
          <mxGeometry y="26" width="160" height="26" as="geometry" />
        </mxCell>
        <mxCell id="5KZx7h7oy_Z8J5BHpIhN-110" value="+ titulo: string" style="text;strokeColor=none;fillColor=none;align=left;verticalAlign=top;spacingLeft=4;spacingRight=4;overflow=hidden;rotatable=0;points=[[0,0.5],[1,0.5]];portConstraint=eastwest;whiteSpace=wrap;html=1;" vertex="1" parent="5KZx7h7oy_Z8J5BHpIhN-63">
          <mxGeometry y="52" width="160" height="26" as="geometry" />
        </mxCell>
        <mxCell id="5KZx7h7oy_Z8J5BHpIhN-111" value="+ endereco: string" style="text;strokeColor=none;fillColor=none;align=left;verticalAlign=top;spacingLeft=4;spacingRight=4;overflow=hidden;rotatable=0;points=[[0,0.5],[1,0.5]];portConstraint=eastwest;whiteSpace=wrap;html=1;" vertex="1" parent="5KZx7h7oy_Z8J5BHpIhN-63">
          <mxGeometry y="78" width="160" height="26" as="geometry" />
        </mxCell>
        <mxCell id="5KZx7h7oy_Z8J5BHpIhN-112" value="+ valor: idvalue" style="text;strokeColor=none;fillColor=none;align=left;verticalAlign=top;spacingLeft=4;spacingRight=4;overflow=hidden;rotatable=0;points=[[0,0.5],[1,0.5]];portConstraint=eastwest;whiteSpace=wrap;html=1;" vertex="1" parent="5KZx7h7oy_Z8J5BHpIhN-63">
          <mxGeometry y="104" width="160" height="26" as="geometry" />
        </mxCell>
        <mxCell id="5KZx7h7oy_Z8J5BHpIhN-113" value="+ valor cond: idvalue" style="text;strokeColor=none;fillColor=none;align=left;verticalAlign=top;spacingLeft=4;spacingRight=4;overflow=hidden;rotatable=0;points=[[0,0.5],[1,0.5]];portConstraint=eastwest;whiteSpace=wrap;html=1;" vertex="1" parent="5KZx7h7oy_Z8J5BHpIhN-63">
          <mxGeometry y="130" width="160" height="26" as="geometry" />
        </mxCell>
        <mxCell id="5KZx7h7oy_Z8J5BHpIhN-115" value="+ iptu: idvalue" style="text;strokeColor=none;fillColor=none;align=left;verticalAlign=top;spacingLeft=4;spacingRight=4;overflow=hidden;rotatable=0;points=[[0,0.5],[1,0.5]];portConstraint=eastwest;whiteSpace=wrap;html=1;" vertex="1" parent="5KZx7h7oy_Z8J5BHpIhN-63">
          <mxGeometry y="156" width="160" height="26" as="geometry" />
        </mxCell>
        <mxCell id="5KZx7h7oy_Z8J5BHpIhN-114" value="+ area: med" style="text;strokeColor=none;fillColor=none;align=left;verticalAlign=top;spacingLeft=4;spacingRight=4;overflow=hidden;rotatable=0;points=[[0,0.5],[1,0.5]];portConstraint=eastwest;whiteSpace=wrap;html=1;" vertex="1" parent="5KZx7h7oy_Z8J5BHpIhN-63">
          <mxGeometry y="182" width="160" height="26" as="geometry" />
        </mxCell>
        <mxCell id="5KZx7h7oy_Z8J5BHpIhN-116" value="+ novo: type" style="text;strokeColor=none;fillColor=none;align=left;verticalAlign=top;spacingLeft=4;spacingRight=4;overflow=hidden;rotatable=0;points=[[0,0.5],[1,0.5]];portConstraint=eastwest;whiteSpace=wrap;html=1;" vertex="1" parent="5KZx7h7oy_Z8J5BHpIhN-63">
          <mxGeometry y="208" width="160" height="26" as="geometry" />
        </mxCell>
        <mxCell id="5KZx7h7oy_Z8J5BHpIhN-117" value="+ descrição: type" style="text;strokeColor=none;fillColor=none;align=left;verticalAlign=top;spacingLeft=4;spacingRight=4;overflow=hidden;rotatable=0;points=[[0,0.5],[1,0.5]];portConstraint=eastwest;whiteSpace=wrap;html=1;" vertex="1" parent="5KZx7h7oy_Z8J5BHpIhN-63">
          <mxGeometry y="234" width="160" height="26" as="geometry" />
        </mxCell>
        <mxCell id="5KZx7h7oy_Z8J5BHpIhN-118" value="+ data cadastro: type" style="text;strokeColor=none;fillColor=none;align=left;verticalAlign=top;spacingLeft=4;spacingRight=4;overflow=hidden;rotatable=0;points=[[0,0.5],[1,0.5]];portConstraint=eastwest;whiteSpace=wrap;html=1;" vertex="1" parent="5KZx7h7oy_Z8J5BHpIhN-63">
          <mxGeometry y="260" width="160" height="26" as="geometry" />
        </mxCell>
        <mxCell id="5KZx7h7oy_Z8J5BHpIhN-119" value="+ data contrato ativo: type" style="text;strokeColor=none;fillColor=none;align=left;verticalAlign=top;spacingLeft=4;spacingRight=4;overflow=hidden;rotatable=0;points=[[0,0.5],[1,0.5]];portConstraint=eastwest;whiteSpace=wrap;html=1;" vertex="1" parent="5KZx7h7oy_Z8J5BHpIhN-63">
          <mxGeometry y="286" width="160" height="26" as="geometry" />
        </mxCell>
        <mxCell id="5KZx7h7oy_Z8J5BHpIhN-65" value="" style="line;strokeWidth=1;fillColor=none;align=left;verticalAlign=middle;spacingTop=-1;spacingLeft=3;spacingRight=3;rotatable=0;labelPosition=right;points=[];portConstraint=eastwest;strokeColor=inherit;" vertex="1" parent="5KZx7h7oy_Z8J5BHpIhN-63">
          <mxGeometry y="312" width="160" height="8" as="geometry" />
        </mxCell>
        <mxCell id="5KZx7h7oy_Z8J5BHpIhN-66" value="+ method(type): type" style="text;strokeColor=none;fillColor=none;align=left;verticalAlign=top;spacingLeft=4;spacingRight=4;overflow=hidden;rotatable=0;points=[[0,0.5],[1,0.5]];portConstraint=eastwest;whiteSpace=wrap;html=1;" vertex="1" parent="5KZx7h7oy_Z8J5BHpIhN-63">
          <mxGeometry y="320" width="160" height="26" as="geometry" />
        </mxCell>
        <mxCell id="5KZx7h7oy_Z8J5BHpIhN-67" value="Fotos" style="swimlane;fontStyle=1;align=center;verticalAlign=top;childLayout=stackLayout;horizontal=1;startSize=26;horizontalStack=0;resizeParent=1;resizeParentMax=0;resizeLast=0;collapsible=1;marginBottom=0;whiteSpace=wrap;html=1;" vertex="1" parent="1">
          <mxGeometry x="430" y="760" width="160" height="86" as="geometry" />
        </mxCell>
        <mxCell id="5KZx7h7oy_Z8J5BHpIhN-68" value="+ field: type" style="text;strokeColor=none;fillColor=none;align=left;verticalAlign=top;spacingLeft=4;spacingRight=4;overflow=hidden;rotatable=0;points=[[0,0.5],[1,0.5]];portConstraint=eastwest;whiteSpace=wrap;html=1;" vertex="1" parent="5KZx7h7oy_Z8J5BHpIhN-67">
          <mxGeometry y="26" width="160" height="26" as="geometry" />
        </mxCell>
        <mxCell id="5KZx7h7oy_Z8J5BHpIhN-69" value="" style="line;strokeWidth=1;fillColor=none;align=left;verticalAlign=middle;spacingTop=-1;spacingLeft=3;spacingRight=3;rotatable=0;labelPosition=right;points=[];portConstraint=eastwest;strokeColor=inherit;" vertex="1" parent="5KZx7h7oy_Z8J5BHpIhN-67">
          <mxGeometry y="52" width="160" height="8" as="geometry" />
        </mxCell>
        <mxCell id="5KZx7h7oy_Z8J5BHpIhN-70" value="+ method(type): type" style="text;strokeColor=none;fillColor=none;align=left;verticalAlign=top;spacingLeft=4;spacingRight=4;overflow=hidden;rotatable=0;points=[[0,0.5],[1,0.5]];portConstraint=eastwest;whiteSpace=wrap;html=1;" vertex="1" parent="5KZx7h7oy_Z8J5BHpIhN-67">
          <mxGeometry y="60" width="160" height="26" as="geometry" />
        </mxCell>
        <mxCell id="5KZx7h7oy_Z8J5BHpIhN-71" value="Corretor" style="swimlane;fontStyle=1;align=center;verticalAlign=top;childLayout=stackLayout;horizontal=1;startSize=26;horizontalStack=0;resizeParent=1;resizeParentMax=0;resizeLast=0;collapsible=1;marginBottom=0;whiteSpace=wrap;html=1;" vertex="1" parent="1">
          <mxGeometry x="630" y="373" width="160" height="86" as="geometry" />
        </mxCell>
        <mxCell id="5KZx7h7oy_Z8J5BHpIhN-72" value="+ field: type" style="text;strokeColor=none;fillColor=none;align=left;verticalAlign=top;spacingLeft=4;spacingRight=4;overflow=hidden;rotatable=0;points=[[0,0.5],[1,0.5]];portConstraint=eastwest;whiteSpace=wrap;html=1;" vertex="1" parent="5KZx7h7oy_Z8J5BHpIhN-71">
          <mxGeometry y="26" width="160" height="26" as="geometry" />
        </mxCell>
        <mxCell id="5KZx7h7oy_Z8J5BHpIhN-73" value="" style="line;strokeWidth=1;fillColor=none;align=left;verticalAlign=middle;spacingTop=-1;spacingLeft=3;spacingRight=3;rotatable=0;labelPosition=right;points=[];portConstraint=eastwest;strokeColor=inherit;" vertex="1" parent="5KZx7h7oy_Z8J5BHpIhN-71">
          <mxGeometry y="52" width="160" height="8" as="geometry" />
        </mxCell>
        <mxCell id="5KZx7h7oy_Z8J5BHpIhN-74" value="+ method(type): type" style="text;strokeColor=none;fillColor=none;align=left;verticalAlign=top;spacingLeft=4;spacingRight=4;overflow=hidden;rotatable=0;points=[[0,0.5],[1,0.5]];portConstraint=eastwest;whiteSpace=wrap;html=1;" vertex="1" parent="5KZx7h7oy_Z8J5BHpIhN-71">
          <mxGeometry y="60" width="160" height="26" as="geometry" />
        </mxCell>
        <mxCell id="5KZx7h7oy_Z8J5BHpIhN-75" value="Apartamento" style="swimlane;fontStyle=1;align=center;verticalAlign=top;childLayout=stackLayout;horizontal=1;startSize=26;horizontalStack=0;resizeParent=1;resizeParentMax=0;resizeLast=0;collapsible=1;marginBottom=0;whiteSpace=wrap;html=1;" vertex="1" parent="1">
          <mxGeometry x="280" y="590" width="130" height="86" as="geometry" />
        </mxCell>
        <mxCell id="5KZx7h7oy_Z8J5BHpIhN-76" value="+ field: type" style="text;strokeColor=none;fillColor=none;align=left;verticalAlign=top;spacingLeft=4;spacingRight=4;overflow=hidden;rotatable=0;points=[[0,0.5],[1,0.5]];portConstraint=eastwest;whiteSpace=wrap;html=1;" vertex="1" parent="5KZx7h7oy_Z8J5BHpIhN-75">
          <mxGeometry y="26" width="130" height="26" as="geometry" />
        </mxCell>
        <mxCell id="5KZx7h7oy_Z8J5BHpIhN-77" value="" style="line;strokeWidth=1;fillColor=none;align=left;verticalAlign=middle;spacingTop=-1;spacingLeft=3;spacingRight=3;rotatable=0;labelPosition=right;points=[];portConstraint=eastwest;strokeColor=inherit;" vertex="1" parent="5KZx7h7oy_Z8J5BHpIhN-75">
          <mxGeometry y="52" width="130" height="8" as="geometry" />
        </mxCell>
        <mxCell id="5KZx7h7oy_Z8J5BHpIhN-78" value="+ method(type): type" style="text;strokeColor=none;fillColor=none;align=left;verticalAlign=top;spacingLeft=4;spacingRight=4;overflow=hidden;rotatable=0;points=[[0,0.5],[1,0.5]];portConstraint=eastwest;whiteSpace=wrap;html=1;" vertex="1" parent="5KZx7h7oy_Z8J5BHpIhN-75">
          <mxGeometry y="60" width="130" height="26" as="geometry" />
        </mxCell>
        <mxCell id="5KZx7h7oy_Z8J5BHpIhN-79" value="Casa" style="swimlane;fontStyle=1;align=center;verticalAlign=top;childLayout=stackLayout;horizontal=1;startSize=26;horizontalStack=0;resizeParent=1;resizeParentMax=0;resizeLast=0;collapsible=1;marginBottom=0;whiteSpace=wrap;html=1;" vertex="1" parent="1">
          <mxGeometry x="430" y="590" width="130" height="86" as="geometry" />
        </mxCell>
        <mxCell id="5KZx7h7oy_Z8J5BHpIhN-80" value="+ field: type" style="text;strokeColor=none;fillColor=none;align=left;verticalAlign=top;spacingLeft=4;spacingRight=4;overflow=hidden;rotatable=0;points=[[0,0.5],[1,0.5]];portConstraint=eastwest;whiteSpace=wrap;html=1;" vertex="1" parent="5KZx7h7oy_Z8J5BHpIhN-79">
          <mxGeometry y="26" width="130" height="26" as="geometry" />
        </mxCell>
        <mxCell id="5KZx7h7oy_Z8J5BHpIhN-81" value="" style="line;strokeWidth=1;fillColor=none;align=left;verticalAlign=middle;spacingTop=-1;spacingLeft=3;spacingRight=3;rotatable=0;labelPosition=right;points=[];portConstraint=eastwest;strokeColor=inherit;" vertex="1" parent="5KZx7h7oy_Z8J5BHpIhN-79">
          <mxGeometry y="52" width="130" height="8" as="geometry" />
        </mxCell>
        <mxCell id="5KZx7h7oy_Z8J5BHpIhN-82" value="+ method(type): type" style="text;strokeColor=none;fillColor=none;align=left;verticalAlign=top;spacingLeft=4;spacingRight=4;overflow=hidden;rotatable=0;points=[[0,0.5],[1,0.5]];portConstraint=eastwest;whiteSpace=wrap;html=1;" vertex="1" parent="5KZx7h7oy_Z8J5BHpIhN-79">
          <mxGeometry y="60" width="130" height="26" as="geometry" />
        </mxCell>
        <mxCell id="5KZx7h7oy_Z8J5BHpIhN-83" value="Sala" style="swimlane;fontStyle=1;align=center;verticalAlign=top;childLayout=stackLayout;horizontal=1;startSize=26;horizontalStack=0;resizeParent=1;resizeParentMax=0;resizeLast=0;collapsible=1;marginBottom=0;whiteSpace=wrap;html=1;" vertex="1" parent="1">
          <mxGeometry x="580" y="590" width="130" height="86" as="geometry" />
        </mxCell>
        <mxCell id="5KZx7h7oy_Z8J5BHpIhN-84" value="+ field: type" style="text;strokeColor=none;fillColor=none;align=left;verticalAlign=top;spacingLeft=4;spacingRight=4;overflow=hidden;rotatable=0;points=[[0,0.5],[1,0.5]];portConstraint=eastwest;whiteSpace=wrap;html=1;" vertex="1" parent="5KZx7h7oy_Z8J5BHpIhN-83">
          <mxGeometry y="26" width="130" height="26" as="geometry" />
        </mxCell>
        <mxCell id="5KZx7h7oy_Z8J5BHpIhN-85" value="" style="line;strokeWidth=1;fillColor=none;align=left;verticalAlign=middle;spacingTop=-1;spacingLeft=3;spacingRight=3;rotatable=0;labelPosition=right;points=[];portConstraint=eastwest;strokeColor=inherit;" vertex="1" parent="5KZx7h7oy_Z8J5BHpIhN-83">
          <mxGeometry y="52" width="130" height="8" as="geometry" />
        </mxCell>
        <mxCell id="5KZx7h7oy_Z8J5BHpIhN-86" value="+ method(type): type" style="text;strokeColor=none;fillColor=none;align=left;verticalAlign=top;spacingLeft=4;spacingRight=4;overflow=hidden;rotatable=0;points=[[0,0.5],[1,0.5]];portConstraint=eastwest;whiteSpace=wrap;html=1;" vertex="1" parent="5KZx7h7oy_Z8J5BHpIhN-83">
          <mxGeometry y="60" width="130" height="26" as="geometry" />
        </mxCell>
        <mxCell id="5KZx7h7oy_Z8J5BHpIhN-87" value="Estado" style="swimlane;fontStyle=1;align=center;verticalAlign=top;childLayout=stackLayout;horizontal=1;startSize=26;horizontalStack=0;resizeParent=1;resizeParentMax=0;resizeLast=0;collapsible=1;marginBottom=0;whiteSpace=wrap;html=1;" vertex="1" parent="1">
          <mxGeometry x="500" y="60" width="130" height="86" as="geometry" />
        </mxCell>
        <mxCell id="5KZx7h7oy_Z8J5BHpIhN-88" value="+ field: type" style="text;strokeColor=none;fillColor=none;align=left;verticalAlign=top;spacingLeft=4;spacingRight=4;overflow=hidden;rotatable=0;points=[[0,0.5],[1,0.5]];portConstraint=eastwest;whiteSpace=wrap;html=1;" vertex="1" parent="5KZx7h7oy_Z8J5BHpIhN-87">
          <mxGeometry y="26" width="130" height="26" as="geometry" />
        </mxCell>
        <mxCell id="5KZx7h7oy_Z8J5BHpIhN-89" value="" style="line;strokeWidth=1;fillColor=none;align=left;verticalAlign=middle;spacingTop=-1;spacingLeft=3;spacingRight=3;rotatable=0;labelPosition=right;points=[];portConstraint=eastwest;strokeColor=inherit;" vertex="1" parent="5KZx7h7oy_Z8J5BHpIhN-87">
          <mxGeometry y="52" width="130" height="8" as="geometry" />
        </mxCell>
        <mxCell id="5KZx7h7oy_Z8J5BHpIhN-90" value="+ method(type): type" style="text;strokeColor=none;fillColor=none;align=left;verticalAlign=top;spacingLeft=4;spacingRight=4;overflow=hidden;rotatable=0;points=[[0,0.5],[1,0.5]];portConstraint=eastwest;whiteSpace=wrap;html=1;" vertex="1" parent="5KZx7h7oy_Z8J5BHpIhN-87">
          <mxGeometry y="60" width="130" height="26" as="geometry" />
        </mxCell>
        <mxCell id="5KZx7h7oy_Z8J5BHpIhN-91" value="Cidade" style="swimlane;fontStyle=1;align=center;verticalAlign=top;childLayout=stackLayout;horizontal=1;startSize=26;horizontalStack=0;resizeParent=1;resizeParentMax=0;resizeLast=0;collapsible=1;marginBottom=0;whiteSpace=wrap;html=1;" vertex="1" parent="1">
          <mxGeometry x="660" y="60" width="130" height="86" as="geometry" />
        </mxCell>
        <mxCell id="5KZx7h7oy_Z8J5BHpIhN-92" value="+ field: type" style="text;strokeColor=none;fillColor=none;align=left;verticalAlign=top;spacingLeft=4;spacingRight=4;overflow=hidden;rotatable=0;points=[[0,0.5],[1,0.5]];portConstraint=eastwest;whiteSpace=wrap;html=1;" vertex="1" parent="5KZx7h7oy_Z8J5BHpIhN-91">
          <mxGeometry y="26" width="130" height="26" as="geometry" />
        </mxCell>
        <mxCell id="5KZx7h7oy_Z8J5BHpIhN-93" value="" style="line;strokeWidth=1;fillColor=none;align=left;verticalAlign=middle;spacingTop=-1;spacingLeft=3;spacingRight=3;rotatable=0;labelPosition=right;points=[];portConstraint=eastwest;strokeColor=inherit;" vertex="1" parent="5KZx7h7oy_Z8J5BHpIhN-91">
          <mxGeometry y="52" width="130" height="8" as="geometry" />
        </mxCell>
        <mxCell id="5KZx7h7oy_Z8J5BHpIhN-94" value="+ method(type): type" style="text;strokeColor=none;fillColor=none;align=left;verticalAlign=top;spacingLeft=4;spacingRight=4;overflow=hidden;rotatable=0;points=[[0,0.5],[1,0.5]];portConstraint=eastwest;whiteSpace=wrap;html=1;" vertex="1" parent="5KZx7h7oy_Z8J5BHpIhN-91">
          <mxGeometry y="60" width="130" height="26" as="geometry" />
        </mxCell>
        <mxCell id="5KZx7h7oy_Z8J5BHpIhN-95" value="Bairro" style="swimlane;fontStyle=1;align=center;verticalAlign=top;childLayout=stackLayout;horizontal=1;startSize=26;horizontalStack=0;resizeParent=1;resizeParentMax=0;resizeLast=0;collapsible=1;marginBottom=0;whiteSpace=wrap;html=1;" vertex="1" parent="1">
          <mxGeometry x="349" y="60" width="130" height="86" as="geometry" />
        </mxCell>
        <mxCell id="5KZx7h7oy_Z8J5BHpIhN-96" value="+ field: type" style="text;strokeColor=none;fillColor=none;align=left;verticalAlign=top;spacingLeft=4;spacingRight=4;overflow=hidden;rotatable=0;points=[[0,0.5],[1,0.5]];portConstraint=eastwest;whiteSpace=wrap;html=1;" vertex="1" parent="5KZx7h7oy_Z8J5BHpIhN-95">
          <mxGeometry y="26" width="130" height="26" as="geometry" />
        </mxCell>
        <mxCell id="5KZx7h7oy_Z8J5BHpIhN-97" value="" style="line;strokeWidth=1;fillColor=none;align=left;verticalAlign=middle;spacingTop=-1;spacingLeft=3;spacingRight=3;rotatable=0;labelPosition=right;points=[];portConstraint=eastwest;strokeColor=inherit;" vertex="1" parent="5KZx7h7oy_Z8J5BHpIhN-95">
          <mxGeometry y="52" width="130" height="8" as="geometry" />
        </mxCell>
        <mxCell id="5KZx7h7oy_Z8J5BHpIhN-98" value="+ method(type): type" style="text;strokeColor=none;fillColor=none;align=left;verticalAlign=top;spacingLeft=4;spacingRight=4;overflow=hidden;rotatable=0;points=[[0,0.5],[1,0.5]];portConstraint=eastwest;whiteSpace=wrap;html=1;" vertex="1" parent="5KZx7h7oy_Z8J5BHpIhN-95">
          <mxGeometry y="60" width="130" height="26" as="geometry" />
        </mxCell>
      </root>
    </mxGraphModel>
  </diagram>
</mxfile>
